<?xml version="1.0" encoding="utf-8"?>
<!-- Generator: Adobe Illustrator 27.5.0, SVG Export Plug-In . SVG Version: 6.00 Build 0)  -->
<svg version="1.1" xmlns="http://www.w3.org/2000/svg" xmlns:xlink="http://www.w3.org/1999/xlink" x="0px" y="0px"
	 viewBox="0 0 500 500" style="enable-background:new 0 0 500 500;" xml:space="preserve">
<g id="BACKGROUND">
	<rect style="fill:transparent;" width="800" height="500"/>
</g>
<g id="OBJECTS">
	<g>
		<g>
			<linearGradient id="SVGID_1_" gradientUnits="userSpaceOnUse" x1="113.813" y1="220.6584" x2="218.2849" y2="220.6584">
				<stop  offset="0" style="stop-color:#DC678E"/>
				<stop  offset="0.0085" style="stop-color:#D9658E"/>
				<stop  offset="0.1334" style="stop-color:#B04D92"/>
				<stop  offset="0.247" style="stop-color:#923C96"/>
				<stop  offset="0.3446" style="stop-color:#803297"/>
				<stop  offset="0.4146" style="stop-color:#7A2E98"/>
				<stop  offset="0.7523" style="stop-color:#9A5599"/>
				<stop  offset="1" style="stop-color:#AD6D99"/>
			</linearGradient>
			<path style="fill:url(#SVGID_1_);" d="M208.837,352.64c-3.1-0.568-6.091-1.766-8.819-3.504c-2.731-1.741-5.196-4.021-7.239-6.748
				c-2.044-2.729-3.663-5.902-4.703-9.426c0,0-65.185-220.83-65.206-220.901c-2.578-8.732,1.032-19.317,7.897-26.148
				c-2.424,1.835-6.654,5.516-8.953,7.535c-1.136,0.997-3.511,3.223-4.61,5.271c-3.659,5.913-4.252,13.294-2.285,19.891
				l63.908,217.107c1.019,3.462,2.61,6.58,4.619,9.26c2.009,2.678,4.435,4.917,7.124,6.625c2.686,1.706,5.633,2.881,8.689,3.436
				c3.049,0.554,6.205,0.491,9.316-0.276l9.709-2.394C215.131,353.145,211.931,353.207,208.837,352.64z"/>
			<g>
				
					<linearGradient id="SVGID_00000005982550112364542550000012570909802958209953_" gradientUnits="userSpaceOnUse" x1="121.8361" y1="209.5079" x2="318.0324" y2="209.5079">
					<stop  offset="0" style="stop-color:#E68A33"/>
					<stop  offset="0.5221" style="stop-color:#E166C8"/>
					<stop  offset="0.5816" style="stop-color:#D060C2"/>
					<stop  offset="0.6993" style="stop-color:#A44FB2"/>
					<stop  offset="0.8623" style="stop-color:#5E3498"/>
					<stop  offset="1" style="stop-color:#1E1C80"/>
				</linearGradient>
				<path style="fill:url(#SVGID_00000005982550112364542550000012570909802958209953_);" d="M223.552,66.366
					c13.105-2.454,25.543,7.804,29.247,19.876c0,0,63.77,207.954,63.787,208.01c4.23,13.85-0.941,27.6-13.939,31.68l-83.011,26.057
					c-3.248,1.02-6.57,1.258-9.796,0.812c-3.233-0.447-6.367-1.58-9.231-3.299c-2.868-1.722-5.461-4.03-7.609-6.822
					c-2.148-2.793-3.847-6.068-4.925-9.718c0,0-65.195-220.864-65.206-220.901c-3.73-12.635,2.825-27.369,16.535-29.936
					C139.405,82.124,223.546,66.367,223.552,66.366z"/>
			</g>
			<g>
				
					<linearGradient id="SVGID_00000181075148804595740230000007867127949173469589_" gradientUnits="userSpaceOnUse" x1="272.026" y1="260.5546" x2="117.5431" y2="120.1613">
					<stop  offset="0" style="stop-color:#E4D5FD"/>
					<stop  offset="0.3891" style="stop-color:#EFE7FE"/>
					<stop  offset="1" style="stop-color:#FFFFFF"/>
				</linearGradient>
				<path style="fill:url(#SVGID_00000181075148804595740230000007867127949173469589_);" d="M228.95,91.356
					c2.267-0.436,4.576-0.349,6.81,0.182c2.231,0.53,4.388,1.502,6.356,2.836c1.966,1.333,3.745,3.029,5.221,5.009
					c1.475,1.979,2.649,4.244,3.406,6.717l56.973,185.418c0.782,2.557,1.08,5.129,0.949,7.592c-0.132,2.466-0.694,4.824-1.632,6.95
					c-0.94,2.129-2.257,4.025-3.897,5.561c-1.643,1.539-3.612,2.718-5.849,3.407l-79.195,24.4c-2.409,0.742-4.87,0.905-7.259,0.564
					c-2.393-0.342-4.712-1.191-6.83-2.472c-2.12-1.282-4.038-2.995-5.625-5.063c-1.588-2.069-2.845-4.491-3.643-7.189
					c0,0-58.139-196.143-58.162-196.22c-2.759-9.323,2.069-20.309,12.196-22.258C148.767,106.789,228.164,91.508,228.95,91.356z"/>
			</g>
			
				<linearGradient id="SVGID_00000061437288848716486690000008701971609048136338_" gradientUnits="userSpaceOnUse" x1="174.5413" y1="92.5137" x2="169.8385" y2="88.2397">
				<stop  offset="0" style="stop-color:#E4D5FD"/>
				<stop  offset="0.3891" style="stop-color:#EFE7FE"/>
				<stop  offset="1" style="stop-color:#FFFFFF"/>
			</linearGradient>
			<path style="fill:url(#SVGID_00000061437288848716486690000008701971609048136338_);" d="M176.844,91.078
				c0,2.145-1.738,3.883-3.883,3.883c-2.145,0-3.883-1.739-3.883-3.883s1.738-3.883,3.883-3.883
				C175.106,87.195,176.844,88.933,176.844,91.078z"/>
			
				<linearGradient id="SVGID_00000180343950312336583380000010749832234122630050_" gradientUnits="userSpaceOnUse" x1="217.1809" y1="-22.7831" x2="202.3042" y2="-36.303" gradientTransform="matrix(0.9825 -0.1861 0.1861 0.9825 -7.132 152.6069)">
				<stop  offset="0" style="stop-color:#E4D5FD"/>
				<stop  offset="0.3891" style="stop-color:#EFE7FE"/>
				<stop  offset="1" style="stop-color:#FFFFFF"/>
			</linearGradient>
			<path style="fill:url(#SVGID_00000180343950312336583380000010749832234122630050_);" d="M208.857,87.186l-24.004,4.546
				c-1.76,0.333-3.456-0.823-3.79-2.583l0,0c-0.333-1.76,0.823-3.456,2.583-3.79l24.004-4.546c1.76-0.333,3.456,0.823,3.79,2.583
				l0,0C211.773,85.156,210.617,86.853,208.857,87.186z"/>
		</g>
		<g>
			<path style="fill:#F3E6FC;" d="M199.603,197.635l17.249,111.559c0,0,21.27,8.508,44.078,5.105
				c22.808-3.403,46.953-11.895,46.953-11.895L199.603,197.635z"/>
			<g>
				<g>
					
						<linearGradient id="SVGID_00000183229558481445811240000005689356568858948774_" gradientUnits="userSpaceOnUse" x1="269.8902" y1="117.9775" x2="345.874" y2="117.9775">
						<stop  offset="0" style="stop-color:#E26F3C"/>
						<stop  offset="1" style="stop-color:#EEB941"/>
					</linearGradient>
					<path style="fill:url(#SVGID_00000183229558481445811240000005689356568858948774_);" d="M341.754,154.785
						c-0.097,0-0.194-0.004-0.292-0.011c-2.152-0.159-3.769-2.033-3.611-4.186c0.027-0.37,2.541-37.149-12.097-53.769
						c-4.308-4.891-9.564-7.437-16.067-7.784c-7.264-0.387-13.15,1.674-18.032,6.302c-13.778,13.058-13.943,41.459-13.943,41.744
						c0,2.159-1.751,3.91-3.91,3.91c0,0,0,0-0.001,0c-2.159-0.001-3.909-1.752-3.909-3.911c0-1.303,0.193-32.073,16.384-47.419
						c6.434-6.098,14.44-8.934,23.829-8.435c8.595,0.459,15.838,3.971,21.529,10.436c16.806,19.097,14.139,57.862,14.017,59.503
						C345.496,153.22,343.782,154.785,341.754,154.785z"/>
				</g>
				
					<linearGradient id="SVGID_00000143582387408436118850000005114537225584626088_" gradientUnits="userSpaceOnUse" x1="212.4508" y1="124.1149" x2="364.7624" y2="124.1149">
					<stop  offset="0" style="stop-color:#E16484"/>
					<stop  offset="1" style="stop-color:#76294B"/>
				</linearGradient>
				<polygon style="fill:url(#SVGID_00000143582387408436118850000005114537225584626088_);" points="364.762,120.802 
					250.462,113.483 212.451,120.415 335.663,134.747 				"/>
				
					<linearGradient id="SVGID_00000154405385395486545690000012912203876870969743_" gradientUnits="userSpaceOnUse" x1="231.8618" y1="257.5297" x2="345.0715" y2="149.5338">
					<stop  offset="0" style="stop-color:#CA7819"/>
					<stop  offset="0.361" style="stop-color:#DA9330"/>
					<stop  offset="0.7524" style="stop-color:#E7AA44"/>
					<stop  offset="1" style="stop-color:#ECB24B"/>
				</linearGradient>
				<path style="fill:url(#SVGID_00000154405385395486545690000012912203876870969743_);" d="M212.451,120.415l-12.848,77.22
					l35.655,89.388c0,0,26.956,18.295,112.31,15.761l-11.905-173.575L212.451,120.415z"/>
				
					<linearGradient id="SVGID_00000100384201809264836000000001042609483286889896_" gradientUnits="userSpaceOnUse" x1="318.2316" y1="171.8418" x2="388.2428" y2="245.5769">
					<stop  offset="0" style="stop-color:#E1612E"/>
					<stop  offset="1" style="stop-color:#BA4752"/>
				</linearGradient>
				<polygon style="fill:url(#SVGID_00000100384201809264836000000001042609483286889896_);" points="335.663,129.209 
					364.762,120.802 383.917,291.77 347.568,302.784 				"/>
				<g>
					
						<linearGradient id="SVGID_00000044175574193251430630000006200832188311657878_" gradientUnits="userSpaceOnUse" x1="227.2422" y1="147.3788" x2="243.7634" y2="147.3788">
						<stop  offset="0" style="stop-color:#E1612E"/>
						<stop  offset="1" style="stop-color:#BA4752"/>
					</linearGradient>
					<circle style="fill:url(#SVGID_00000044175574193251430630000006200832188311657878_);" cx="235.503" cy="147.379" r="8.261"/>
					
						<linearGradient id="SVGID_00000085947632640055265910000014702627502726487181_" gradientUnits="userSpaceOnUse" x1="305.4283" y1="155.6395" x2="321.9496" y2="155.6395">
						<stop  offset="0" style="stop-color:#E1612E"/>
						<stop  offset="1" style="stop-color:#BA4752"/>
					</linearGradient>
					<path style="fill:url(#SVGID_00000085947632640055265910000014702627502726487181_);" d="M321.95,155.639
						c0,4.562-3.698,8.261-8.261,8.261c-4.562,0-8.261-3.698-8.261-8.261c0-4.562,3.698-8.261,8.261-8.261
						C318.251,147.379,321.95,151.077,321.95,155.639z"/>
				</g>
				<g>
					
						<linearGradient id="SVGID_00000068655021205798090600000015588346226699019955_" gradientUnits="userSpaceOnUse" x1="231.3392" y1="120.802" x2="317.7804" y2="120.802">
						<stop  offset="0" style="stop-color:#F1CA47"/>
						<stop  offset="1" style="stop-color:#EEB941"/>
					</linearGradient>
					<path style="fill:url(#SVGID_00000068655021205798090600000015588346226699019955_);" d="M313.87,160.448
						c-2.153,0-3.901-1.741-3.91-3.896c-0.002-0.665-0.672-66.516-35.518-67.564c-0.259-0.008-0.519-0.012-0.774-0.012
						c-31.383,0-34.485,58.215-34.513,58.808c-0.1,2.157-1.965,3.825-4.089,3.722c-2.158-0.102-3.824-1.933-3.723-4.09
						c0.032-0.672,0.836-16.632,6.235-32.729c7.523-22.43,20.346-34.002,37.099-33.516c17.859,0.537,30.985,14.033,37.957,39.028
						c5.027,18.02,5.143,35.587,5.145,36.326c0.008,2.159-1.737,3.915-3.896,3.923C313.88,160.448,313.874,160.448,313.87,160.448z"
						/>
				</g>
			</g>
		</g>
	</g>
</g>
<!-- <g id="TEXTS">
	<g>
		
			<text transform="matrix(1 0 0 1 129.7227 413.584)" style="fill:#984583; font-family:'Ubuntu-Bold'; font-size:55.1863px; letter-spacing:-2;">Shop</text>
		
			<text transform="matrix(1 0 0 1 238.3447 413.584)" style="fill:#E47B37; font-family:'Ubuntu-Bold'; font-size:55.1863px; letter-spacing:-2;">now</text>
	</g>
	<text transform="matrix(1 0 0 1 185.1509 442.0859)" style="fill:#949494; font-family:'Ubuntu'; font-size:17.0019px;">Offers</text>
</g> -->
</svg>
